<svg width="72" height="73" viewBox="0 0 72 73" fill="none" xmlns="http://www.w3.org/2000/svg">
<path d="M52.5 18.5002L50.7254 8.57837H16.0801C13.2829 8.57837 11 10.8613 11 13.6585V66.9559C11 69.7531 13.2829 72.0361 16.0801 72.0361H56.6835C59.4807 72.0361 61.7637 69.7531 61.7637 66.9559V19.7546L52.5 18.5002Z" fill="#FBBED1"/>
<path d="M19.8934 54.5129C21.223 54.5129 22.3018 55.5917 22.3018 56.9213C22.3018 58.2509 21.223 59.3296 19.8934 59.3296C18.5638 59.3296 17.485 58.2509 17.485 56.9213C17.485 55.5917 18.5638 54.5129 19.8934 54.5129Z" fill="white"/>
<path d="M19.8934 43.4742C21.223 43.4742 22.3018 44.553 22.3018 45.8826C22.3018 47.2122 21.223 48.291 19.8934 48.291C18.5638 48.291 17.485 47.2122 17.485 45.8826C17.485 44.553 18.5638 43.4742 19.8934 43.4742Z" fill="white"/>
<path d="M19.8934 32.3107C21.223 32.3107 22.3018 33.3894 22.3018 34.719C22.3018 36.0487 21.223 37.1274 19.8934 37.1274C18.5638 37.1274 17.485 36.0487 17.485 34.719C17.485 33.3894 18.5638 32.3107 19.8934 32.3107Z" fill="white"/>
<path d="M50.7254 8.57837C55.0404 12.8933 57.4487 15.3017 61.8892 19.7421H54.7254C52.5163 19.7421 50.7254 17.9512 50.7254 15.7421V8.57837Z" fill="white"/>
<path d="M50.7254 57.6862C51.6411 57.6862 52.3687 58.4262 52.3687 59.3419C52.3687 60.2576 51.6286 60.9976 50.7254 60.9976C49.8223 60.9976 49.0697 60.2576 49.0697 59.3419C49.0697 58.4262 49.8098 57.6862 50.7254 57.6862Z" fill="white"/>
<path d="M42.8607 41.8187C43.7764 41.8187 44.5039 42.5588 44.5039 43.4744C44.5039 44.3901 43.7638 45.1176 42.8607 45.1176C41.9576 45.1176 41.2175 44.3776 41.2175 43.4744C41.2175 42.5713 41.9576 41.8187 42.8607 41.8187Z" fill="white"/>
<path d="M27.0056 26.089C25.3624 26.089 23.7066 25.4493 22.5651 24.1824C21.4237 22.9155 20.6585 21.3852 20.6585 19.742V15.8033C20.6585 13.6458 22.4397 11.8647 24.5972 11.8647C25.6132 11.8647 26.6292 12.241 27.3944 13.0061C28.1596 13.7713 28.5359 14.7873 28.5359 15.8033V18.0863C28.5359 18.9768 27.7707 19.742 26.8926 19.742C26.0146 19.742 25.2494 18.9768 25.2494 18.0863V15.6779C25.2494 15.427 25.124 15.1761 24.9986 15.1761C24.8731 15.0507 24.7477 14.9253 24.4968 14.9253C24.1205 14.9253 23.7317 15.3016 23.7317 15.6904V19.6291C23.7317 20.5197 24.108 21.2848 24.6223 21.912C25.262 22.5517 26.0146 22.8026 26.9052 22.8026C28.6864 22.8026 30.0787 21.4103 30.0787 19.6291V6.93507C30.0787 6.04448 29.7024 5.27932 29.1881 4.65214C28.5484 4.01242 27.7958 3.76152 26.9052 3.76152C25.124 3.76152 23.7317 5.15389 23.7317 6.93507V8.57827C23.7317 9.46886 22.9665 10.234 22.0885 10.234C21.2104 10.234 20.4327 9.46886 20.4327 8.57827V6.93507C20.4327 3.38526 23.2299 0.588013 26.7798 0.588013C28.423 0.588013 30.0787 1.22776 31.2202 2.49465C32.3616 3.63611 33.1268 5.29187 33.1268 6.93507V19.6291C33.3777 23.1789 30.4676 26.1016 27.0306 26.1016L27.0056 26.089Z" fill="white"/>
<path d="M38.0439 33.9537H26.8802C25.9896 33.9537 25.237 33.1885 25.237 32.2979C25.237 31.4073 26.0022 30.6422 26.8802 30.6422H38.0439C38.9345 30.6422 39.6997 31.4073 39.6997 32.2979C39.6997 33.1885 38.9345 33.9537 38.0439 33.9537Z" fill="white"/>
<path d="M50.7254 38.7828H26.9931C26.1025 38.7828 25.3499 38.0177 25.3499 37.1271C25.3499 36.2365 26.115 35.4839 26.9931 35.4839H50.8509C51.7414 35.4839 52.4941 36.249 52.4941 37.1271C52.3686 38.0177 51.6035 38.7828 50.7129 38.7828H50.7254Z" fill="white"/>
<path d="M38.0439 45.1176H26.8802C25.9896 45.1176 25.237 44.3525 25.237 43.4744C25.237 42.5964 26.0022 41.8187 26.8802 41.8187H38.0439C38.9345 41.8187 39.6997 42.5839 39.6997 43.4744C39.6997 44.365 38.9345 45.1176 38.0439 45.1176Z" fill="white"/>
<path d="M50.7254 49.8215H26.9931C26.1025 49.8215 25.3499 49.0564 25.3499 48.1658C25.3499 47.2752 26.115 46.5226 26.9931 46.5226H50.8509C51.7414 46.5226 52.4941 47.2877 52.4941 48.1658C52.4941 49.0438 51.6035 49.8215 50.7129 49.8215H50.7254Z" fill="white"/>
<path d="M38.0439 56.1558H26.8802C25.9896 56.1558 25.237 55.3906 25.237 54.5126C25.237 53.6345 26.0022 52.8568 26.8802 52.8568H38.0439C38.9345 52.8568 39.6997 53.622 39.6997 54.5126C39.6997 55.4032 38.9345 56.1558 38.0439 56.1558Z" fill="white"/>
<path d="M46.0342 60.9849H27.0056C26.1151 60.9849 25.3624 60.2197 25.3624 59.3291C25.3624 58.4385 26.1276 57.6733 27.0056 57.6733H46.0342C46.9248 57.6733 47.6899 58.4385 47.6899 59.3291C47.5645 60.2197 46.9248 60.9849 46.0342 60.9849Z" fill="white"/>
</svg>
