<svg width="72" height="73" viewBox="0 0 72 73" fill="none" xmlns="http://www.w3.org/2000/svg">
<path d="M52.5 18.5002L50.7253 8.57831H16.0801C13.2829 8.57831 11 10.8612 11 13.6584V66.9559C11 69.7531 13.2829 72.036 16.0801 72.036H56.6835C59.4807 72.036 61.7636 69.7531 61.7636 66.9559V19.7546L52.5 18.5002Z" fill="#AED6DB"/>
<path d="M19.8934 54.5129C21.223 54.5129 22.3017 55.5916 22.3017 56.9212C22.3017 58.2508 21.223 59.3296 19.8934 59.3296C18.5638 59.3296 17.485 58.2508 17.485 56.9212C17.485 55.5916 18.5638 54.5129 19.8934 54.5129Z" fill="white"/>
<path d="M19.8934 43.4742C21.223 43.4742 22.3017 44.5529 22.3017 45.8826C22.3017 47.2122 21.223 48.2909 19.8934 48.2909C18.5638 48.2909 17.485 47.2122 17.485 45.8826C17.485 44.5529 18.5638 43.4742 19.8934 43.4742Z" fill="white"/>
<path d="M19.8934 32.3106C21.223 32.3106 22.3017 33.3894 22.3017 34.719C22.3017 36.0486 21.223 37.1273 19.8934 37.1273C18.5638 37.1273 17.485 36.0486 17.485 34.719C17.485 33.3894 18.5638 32.3106 19.8934 32.3106Z" fill="white"/>
<path d="M50.7254 8.57831C55.0403 12.8933 57.4487 15.3016 61.8891 19.742H54.7254C52.5162 19.742 50.7254 17.9512 50.7254 15.742V8.57831Z" fill="white"/>
<path d="M50.7254 57.6861C51.6411 57.6861 52.3687 58.4262 52.3687 59.3419C52.3687 60.2575 51.6286 60.9976 50.7254 60.9976C49.8223 60.9976 49.0697 60.2575 49.0697 59.3419C49.0697 58.4262 49.8098 57.6861 50.7254 57.6861Z" fill="white"/>
<path d="M42.8607 41.8187C43.7763 41.8187 44.5039 42.5587 44.5039 43.4744C44.5039 44.3901 43.7638 45.1176 42.8607 45.1176C41.9575 45.1176 41.2174 44.3775 41.2174 43.4744C41.2174 42.5712 41.9575 41.8187 42.8607 41.8187Z" fill="white"/>
<path d="M27.0056 26.089C25.3624 26.089 23.7066 25.4493 22.5651 24.1824C21.4237 22.9155 20.6585 21.3851 20.6585 19.7419V15.8033C20.6585 13.6458 22.4397 11.8646 24.5972 11.8646C25.6132 11.8646 26.6292 12.2409 27.3944 13.0061C28.1596 13.7712 28.5359 14.7872 28.5359 15.8033V18.0862C28.5359 18.9768 27.7707 19.7419 26.8926 19.7419C26.0146 19.7419 25.2494 18.9768 25.2494 18.0862V15.6778C25.2494 15.4269 25.124 15.1761 24.9986 15.1761C24.8731 15.0506 24.7477 14.9252 24.4968 14.9252C24.1205 14.9252 23.7317 15.3015 23.7317 15.6904V19.6291C23.7317 20.5196 24.108 21.2848 24.6223 21.912C25.262 22.5517 26.0146 22.8026 26.9052 22.8026C28.6864 22.8026 30.0787 21.4102 30.0787 19.6291V6.93501C30.0787 6.04442 29.7024 5.27926 29.1881 4.65208C28.5484 4.01236 27.7958 3.76146 26.9052 3.76146C25.124 3.76146 23.7317 5.15383 23.7317 6.93501V8.57821C23.7317 9.4688 22.9665 10.2339 22.0885 10.2339C21.2104 10.2339 20.4327 9.4688 20.4327 8.57821V6.93501C20.4327 3.38519 23.2299 0.587952 26.7798 0.587952C28.423 0.587952 30.0787 1.2277 31.2202 2.49459C32.3616 3.63605 33.1268 5.29181 33.1268 6.93501V19.6291C33.3777 23.1789 30.4676 26.1015 27.0306 26.1015L27.0056 26.089Z" fill="white"/>
<path d="M38.0439 33.9537H26.8802C25.9896 33.9537 25.237 33.1885 25.237 32.2979C25.237 31.4073 26.0022 30.6422 26.8802 30.6422H38.0439C38.9345 30.6422 39.6997 31.4073 39.6997 32.2979C39.6997 33.1885 38.9345 33.9537 38.0439 33.9537Z" fill="white"/>
<path d="M50.7254 38.7828H26.9931C26.1025 38.7828 25.3499 38.0176 25.3499 37.127C25.3499 36.2364 26.115 35.4838 26.9931 35.4838H50.8509C51.7414 35.4838 52.4941 36.249 52.4941 37.127C52.3686 38.0176 51.6035 38.7828 50.7129 38.7828H50.7254Z" fill="white"/>
<path d="M38.0439 45.1176H26.8802C25.9896 45.1176 25.237 44.3524 25.237 43.4744C25.237 42.5963 26.0022 41.8187 26.8802 41.8187H38.0439C38.9345 41.8187 39.6997 42.5838 39.6997 43.4744C39.6997 44.365 38.9345 45.1176 38.0439 45.1176Z" fill="white"/>
<path d="M50.7254 49.8214H26.9931C26.1025 49.8214 25.3499 49.0563 25.3499 48.1657C25.3499 47.2751 26.115 46.5225 26.9931 46.5225H50.8509C51.7414 46.5225 52.4941 47.2877 52.4941 48.1657C52.4941 49.0438 51.6035 49.8214 50.7129 49.8214H50.7254Z" fill="white"/>
<path d="M38.0439 56.1557H26.8802C25.9896 56.1557 25.237 55.3906 25.237 54.5125C25.237 53.6345 26.0022 52.8568 26.8802 52.8568H38.0439C38.9345 52.8568 39.6997 53.6219 39.6997 54.5125C39.6997 55.4031 38.9345 56.1557 38.0439 56.1557Z" fill="white"/>
<path d="M46.0341 60.9848H27.0056C26.115 60.9848 25.3624 60.2196 25.3624 59.329C25.3624 58.4384 26.1276 57.6733 27.0056 57.6733H46.0341C46.9247 57.6733 47.6899 58.4384 47.6899 59.329C47.5644 60.2196 46.9247 60.9848 46.0341 60.9848Z" fill="white"/>
</svg>
